<svg id="Layer_1" data-name="Layer 1" xmlns="http://www.w3.org/2000/svg" viewBox="0 0 683.57 155.51"><defs><style>.cls-1,.cls-5{fill:#fff;}.cls-2,.cls-4{fill:#39b54a;}.cls-3{fill:#231f20;}.cls-4{font-size:148.52px;font-family:BerlinSansFBDemi-Bold, Berlin Sans FB Demi;font-weight:700;}.cls-5{stroke:#009444;stroke-miterlimit:10;stroke-width:0.25px;letter-spacing:0em;}</style></defs><title>ecommerce</title><path class="cls-1" d="M323.84,32.64V146.07a15.59,15.59,0,0,1-15.58,15.58H33.53a15.59,15.59,0,0,1-15.59-15.58V55.53a37.94,37.94,0,0,1,.19-3.86c.43.47.88.93,1.34,1.4a2.37,2.37,0,1,0,3.38-3.32q-2-2.09-3.65-4a38.33,38.33,0,0,1,7.47-14.62,44.06,44.06,0,0,1,9,10.62,2.36,2.36,0,1,0,4-2.52,49.55,49.55,0,0,0-9.83-11.56A38.38,38.38,0,0,1,56.42,17.06H308.26A15.59,15.59,0,0,1,323.84,32.64Z" transform="translate(-6.97 -14.68)"/><circle class="cls-2" cx="30.74" cy="27.12" r="4.08"/><path class="cls-3" d="M39,42.49a2.36,2.36,0,0,1-3.26-.74,44.06,44.06,0,0,0-9-10.62c-3.85-3.18-7.41-4.58-9.94-4.72A4.72,4.72,0,0,0,12.51,28c-1.75,2.19-1.1,8.5,6.69,17.74a37.22,37.22,0,0,0-1.07,5.92C8.07,40.9,4.41,30.57,8.82,25.06A9.41,9.41,0,0,1,17,21.69c4.11.23,8.59,2.37,12.89,6a49.55,49.55,0,0,1,9.83,11.56A2.37,2.37,0,0,1,39,42.49Z" transform="translate(-6.97 -14.68)"/><text class="cls-4" transform="translate(34.43 125.13)">One<tspan class="cls-3" x="270.14" y="0"> </tspan><tspan class="cls-5" x="307.27" y="0">deals</tspan></text></svg>